<?xml version="1.0" standalone="no"?>
<!DOCTYPE svg PUBLIC "-//W3C//DTD SVG 20010904//EN"
 "http://www.w3.org/TR/2001/REC-SVG-20010904/DTD/svg10.dtd">
<svg version="1.0" xmlns="http://www.w3.org/2000/svg"
 width="1250.000000pt" height="356.000000pt" viewBox="0 0 1250.000000 356.000000"
 preserveAspectRatio="xMidYMid meet">
<metadata>
Created by potrace 1.15, written by Peter Selinger 2001-2017
</metadata>
<g transform="translate(0.000000,356.000000) scale(0.100000,-0.100000)"
fill="#000000" stroke="none">
<path d="M4180 3159 c-118 -21 -216 -41 -230 -49 -9 -4 -35 -11 -58 -15 -23
-4 -44 -11 -48 -16 -3 -5 -12 -9 -19 -9 -38 0 -230 -96 -345 -173 -104 -69
-140 -99 -244 -203 -84 -83 -95 -95 -136 -154 -13 -19 -29 -40 -35 -47 -5 -7
-15 -18 -21 -26 -28 -33 -154 -274 -154 -293 0 -6 -7 -25 -15 -40 -8 -16 -15
-39 -15 -51 0 -13 -4 -23 -8 -23 -8 0 -27 -71 -40 -150 -4 -25 -11 -50 -15
-56 -3 -6 -11 -76 -16 -155 -10 -149 0 -386 19 -460 5 -21 15 -58 21 -81 20
-84 52 -183 60 -192 5 -6 9 -17 9 -26 0 -17 73 -163 113 -228 15 -23 27 -46
27 -52 0 -5 4 -10 9 -10 5 0 12 -8 15 -18 3 -9 18 -31 33 -49 16 -17 39 -45
53 -63 56 -72 217 -222 269 -249 14 -8 314 -11 984 -11 l964 0 29 22 c82 64
219 198 269 263 17 21 35 43 40 49 41 43 155 236 155 262 0 7 4 14 8 16 4 2
23 44 41 93 17 50 36 97 40 105 5 9 12 36 15 60 4 25 11 54 16 65 19 45 40
233 40 357 0 148 -37 402 -69 483 -5 11 -14 38 -21 60 -12 37 -31 85 -66 162
-8 17 -14 36 -14 42 0 6 -4 11 -10 11 -5 0 -10 5 -10 12 0 18 -93 159 -180
272 -28 37 -155 162 -209 207 -29 24 -62 52 -74 62 -11 9 -26 17 -33 17 -7 0
-14 3 -16 8 -11 26 -311 182 -350 182 -8 0 -18 4 -24 9 -5 5 -29 14 -54 19
-25 6 -74 18 -110 27 -36 10 -94 21 -130 27 -92 13 -394 18 -460 7z m390 -738
c36 -6 73 -16 82 -21 10 -6 23 -10 30 -10 19 0 160 -73 215 -111 129 -90 274
-291 298 -412 3 -18 10 -41 15 -52 5 -11 15 -74 22 -140 11 -105 11 -137 -4
-250 -23 -180 -46 -250 -123 -371 -48 -75 -198 -223 -253 -249 -23 -11 -42
-23 -42 -27 0 -5 -6 -8 -12 -8 -7 -1 -31 -9 -53 -20 -22 -11 -47 -19 -55 -20
-9 0 -20 -4 -25 -8 -6 -5 -45 -17 -88 -27 -62 -14 -107 -17 -230 -13 -83 3
-163 9 -177 15 -14 6 -50 18 -80 28 -30 9 -69 23 -87 31 -17 8 -36 14 -41 14
-6 0 -12 3 -14 8 -1 4 -21 19 -43 34 -156 103 -270 250 -319 413 -10 33 -22
67 -26 76 -5 9 -14 68 -20 132 -11 116 0 336 19 376 5 9 16 41 25 71 16 52 45
119 56 130 3 3 14 22 24 43 11 20 23 37 27 37 4 0 10 9 14 19 15 49 238 231
282 231 7 0 13 5 13 10 0 6 9 10 19 10 11 0 22 4 26 9 3 5 20 13 37 17 18 3
39 10 48 15 64 34 301 45 440 20z"/>
<path d="M6280 1705 l0 -1445 368 0 c202 0 373 4 379 8 10 6 13 101 15 398 l3
389 52 3 c48 3 53 1 76 -30 38 -50 167 -264 167 -276 0 -6 4 -12 8 -14 4 -2
41 -57 82 -123 41 -66 78 -121 82 -123 4 -2 8 -8 8 -14 0 -19 120 -206 136
-212 30 -12 874 -7 874 5 0 10 -106 176 -121 189 -3 3 -16 23 -29 45 -13 22
-27 42 -30 45 -5 5 -90 128 -115 168 -5 9 -14 21 -18 26 -4 6 -28 43 -54 81
-25 39 -49 72 -53 75 -4 3 -10 15 -14 28 -4 12 -12 22 -17 22 -5 0 -9 5 -9 10
0 6 -9 20 -19 31 -22 24 -95 139 -90 142 2 1 22 11 44 22 22 11 46 26 53 32 7
7 20 13 28 13 8 0 14 4 14 9 0 5 9 13 20 16 11 3 65 50 119 104 137 135 243
311 285 475 8 31 17 60 20 65 3 5 10 62 16 127 11 119 0 323 -19 369 -4 11
-16 47 -27 80 -10 33 -21 67 -25 75 -43 89 -74 148 -85 161 -8 8 -14 21 -14
27 0 7 -4 12 -9 12 -5 0 -13 9 -16 20 -10 33 -155 172 -230 222 -86 57 -184
108 -207 108 -9 0 -19 4 -22 9 -4 5 -25 12 -48 16 -23 4 -49 11 -58 16 -8 4
-63 15 -122 23 -88 13 -220 16 -752 16 l-646 0 0 -1445z m1305 699 c11 -6 38
-20 60 -30 52 -25 118 -94 139 -146 10 -24 22 -51 27 -60 5 -10 9 -49 9 -88 0
-114 -60 -224 -155 -282 -76 -47 -167 -59 -405 -56 l-215 3 -3 339 -2 338 262
-4 c160 -2 271 -8 283 -14z"/>
<path d="M210 1690 l0 -1430 1069 0 1069 0 35 35 c62 62 153 210 197 320 40
99 70 263 70 382 0 88 -20 206 -41 245 -5 10 -9 23 -9 30 0 18 -62 138 -72
138 -4 0 -8 5 -8 12 0 13 -7 21 -91 109 -58 60 -188 159 -209 159 -26 0 -10
32 40 80 31 30 75 80 97 110 38 52 47 69 87 165 29 70 47 227 36 313 -18 139
-32 193 -67 262 -7 14 -13 31 -13 38 0 6 -4 12 -10 12 -5 0 -10 5 -10 11 0 23
-85 136 -154 205 -83 84 -240 184 -288 184 -8 0 -18 4 -24 9 -29 30 -138 35
-916 38 l-788 3 0 -1430z m1425 716 c75 -48 98 -101 93 -210 -3 -69 -8 -87
-32 -123 -17 -26 -44 -49 -72 -62 -41 -20 -61 -21 -349 -21 l-305 0 0 213 c0
118 3 217 7 221 4 4 147 6 318 4 285 -3 313 -5 340 -22z m111 -1142 c52 -25
107 -93 127 -158 18 -59 23 -171 8 -180 -4 -3 -11 -24 -15 -46 -3 -22 -10 -40
-15 -40 -6 0 -13 -10 -17 -22 -13 -42 -58 -71 -145 -92 -53 -14 -117 -16 -389
-14 l-325 3 -3 283 -2 282 371 0 c322 0 376 -2 405 -16z"/>
<path d="M8830 1696 c0 -1289 1 -1424 16 -1430 9 -3 180 -6 380 -6 l364 0 0
621 c0 394 4 619 10 617 5 -1 41 -48 80 -103 38 -55 73 -105 77 -110 5 -6 24
-33 43 -60 19 -28 38 -51 42 -53 4 -2 8 -9 8 -16 0 -7 9 -24 20 -37 29 -36 33
-41 54 -74 11 -16 24 -35 30 -42 22 -25 32 -39 66 -93 19 -30 37 -57 40 -60 3
-3 21 -27 39 -55 19 -27 37 -52 40 -55 4 -3 11 -12 16 -21 26 -42 91 -135 103
-148 7 -7 28 -37 47 -67 19 -29 66 -96 105 -149 l70 -95 388 2 387 3 3 1428 2
1427 -375 0 -375 0 0 -770 c0 -444 -4 -770 -9 -770 -5 0 -37 42 -72 92 -34 51
-65 95 -68 98 -4 3 -28 39 -56 80 -27 41 -51 77 -54 80 -3 3 -28 39 -56 80
-27 41 -53 77 -57 78 -5 2 -8 10 -8 17 0 7 -3 15 -7 17 -5 2 -26 30 -48 63
-22 33 -43 62 -47 63 -5 2 -8 8 -8 13 0 6 -5 15 -10 22 -28 32 -100 138 -100
146 0 5 -4 11 -9 13 -8 3 -101 135 -101 144 0 3 -5 10 -10 17 -44 51 -60 73
-60 79 0 4 -6 13 -12 20 -7 8 -17 21 -23 29 -39 61 -91 135 -97 137 -5 2 -8
10 -8 18 0 8 -7 17 -15 20 -8 4 -15 10 -15 15 0 10 -62 103 -72 107 -5 2 -8 8
-8 14 0 5 -12 25 -26 44 l-26 34 -299 0 -299 0 0 -1424z"/>
<path d="M11855 1033 c-103 -28 -220 -118 -273 -211 -48 -85 -63 -261 -29
-355 29 -81 93 -168 145 -196 14 -7 106 -11 269 -11 289 0 282 -2 356 102 54
77 77 151 77 253 0 170 -81 302 -235 382 -66 34 -76 36 -180 39 -60 2 -119 0
-130 -3z"/>
</g>
</svg>
